 <svg version="1.0" xmlns="http://www.w3.org/2000/svg"  width="64.000000pt" height="40.000000pt" viewBox="0 0 64.000000 40.000000"  preserveAspectRatio="xMidYMid meet">  <g transform="translate(0.000000,40.000000) scale(0.100000,-0.100000)" fill="#5756cf" stroke="none"> <path d="M470 365 c-30 -32 -84 -34 -116 -4 -13 12 -29 19 -36 16 -17 -6 -121 -275 -115 -296 3 -9 8 -24 12 -33 6 -16 0 -18 -66 -18 -82 0 -105 9 -95 35 6 17 21 17 99 2 7 -1 12 5 12 13 0 17 -75 35 -111 26 -28 -7 -41 -45 -24 -75 10 -20 19 -21 141 -21 100 0 130 3 127 13 -3 6 -15 13 -27 15 -12 2 -27 14 -33 26 -8 19 -2 46 37 147 26 68 49 126 51 128 2 2 13 -4 24 -14 26 -24 94 -24 120 0 11 10 22 16 24 14 2 -2 25 -60 51 -128 53 -139 52 -163 -5 -176 -25 -5 -36 -3 -50 13 -27 28 -145 30 -160 2 -6 -10 -10 -23 -10 -29 0 -17 27 -13 34 4 7 20 26 19 42 -2 13 -17 15 -17 28 0 16 21 35 22 42 2 4 -11 21 -15 56 -15 64 0 103 34 95 83 -7 43 -107 297 -116 297 -4 0 -18 -11 -31 -25z"/> <path d="M344 229 c-10 -17 13 -36 27 -22 12 12 4 33 -11 33 -5 0 -12 -5 -16 -11z"/> <path d="M444 229 c-10 -17 13 -36 27 -22 12 12 4 33 -11 33 -5 0 -12 -5 -16 -11z"/> </g> </svg> 